<svg version="1.1" id="Layer_1" xmlns="http://www.w3.org/2000/svg" xmlns:xlink="http://www.w3.org/1999/xlink" x="0px" y="0px" viewBox="0 0 181.6 86.7" style="enable-background:new 0 0 181.6 86.7;" xml:space="preserve">
 <style type="text/css">
  .st0{fill:#003E69;}
 </style>
 <g>
  <path class="st0" d="M111.1,49.7L111.1,49.7">
  </path>
  <path class="st0" d="M181.6,29.8h-32.6c4.3-16.1,8.2-29.8,8.2-29.8s-14.7,15.7-27.7,29.8L0,30.1l0,0l126.1,3.2
		c-9.7,10.3-14.8,16.2-15,16.4l0,0c0.4-0.4,17.9-16.3,17.9-16.3l15.3,0.4l-2.3,12.1L70.2,86.5l-0.3,0.2c0,0,57.1-30,71.5-37.3
		c0,0-5.1,26.4-5.1,26.5c0,0,0,0,0,0v0l0.1-0.3c0.5-1.7,3.5-12.1,7.6-27.5C162.8,38.6,181.6,29.8,181.6,29.8 M147.7,16.3l-2.6,13.5
		h-12.2L147.7,16.3z M147.8,33.8l14.9,0.4l-17.7,10C146,40.6,146.8,37.4,147.8,33.8">
  </path>
 </g>
</svg>